<svg width="39" height="45" viewBox="0 0 39 45" fill="none" xmlns="http://www.w3.org/2000/svg">
<path d="M30.1727 20.8566C29.9789 20.7637 29.782 20.6743 29.5826 20.5887C29.2352 14.1886 25.7381 10.5246 19.8661 10.4871C19.8395 10.4869 19.813 10.4869 19.7864 10.4869C16.2742 10.4869 13.3531 11.9861 11.5552 14.7142L14.7846 16.9296C16.1277 14.8918 18.2356 14.4574 19.788 14.4574C19.8059 14.4574 19.8239 14.4574 19.8416 14.4575C21.7751 14.4699 23.2341 15.032 24.1784 16.1283C24.8655 16.9264 25.3252 18.0293 25.5527 19.4212C23.8385 19.1299 21.9846 19.0403 20.0027 19.1539C14.4199 19.4755 10.8307 22.7315 11.0718 27.2559C11.1941 29.5509 12.3374 31.5253 14.291 32.8151C15.9427 33.9054 18.0701 34.4386 20.281 34.3179C23.2008 34.1578 25.4913 33.0438 27.0893 31.0069C28.3029 29.46 29.0705 27.4554 29.4094 24.9295C30.8009 25.7693 31.8321 26.8744 32.4016 28.2028C33.3701 30.461 33.4266 34.1719 30.3987 37.1972C27.7458 39.8475 24.5569 40.9941 19.7375 41.0295C14.3916 40.9898 10.3485 39.2754 7.71987 35.9337C5.25832 32.8045 3.98618 28.2848 3.93872 22.5C3.98618 16.7151 5.25832 12.1954 7.71987 9.06626C10.3485 5.72459 14.3915 4.01016 19.7375 3.97043C25.1222 4.01046 29.2357 5.73314 31.965 9.09094C33.3033 10.7376 34.3123 12.8083 34.9774 15.2227L38.7619 14.213C37.9556 11.2411 36.687 8.68024 34.9605 6.55641C31.4616 2.25157 26.3442 0.0457378 19.7507 0H19.7243C13.1441 0.0455789 8.08409 2.2598 4.68476 6.58109C1.65982 10.4265 0.0994687 15.7771 0.0470391 22.4842L0.046875 22.5L0.0470391 22.5158C0.0994687 29.2228 1.65982 34.5736 4.68476 38.419C8.08409 42.7402 13.1441 44.9545 19.7243 45H19.7507C25.6008 44.9595 29.7244 43.4278 33.1214 40.0338C37.5659 35.5936 37.432 30.0279 35.9672 26.6112C34.9162 24.161 32.9126 22.171 30.1727 20.8566ZM20.072 30.3532C17.6251 30.491 15.0831 29.3927 14.9577 27.0403C14.8648 25.2961 16.199 23.3498 20.2222 23.118C20.6829 23.0914 21.135 23.0784 21.5791 23.0784C23.0405 23.0784 24.4076 23.2204 25.6505 23.4921C25.1869 29.2816 22.4677 30.2217 20.072 30.3532Z" fill="#676262"/>
</svg>
